<svg height="512pt" viewBox="-10 0 512 512" width="512pt" xmlns="http://www.w3.org/2000/svg"><path d="m149.128906 239.0625c-22.601562 2.046875-44.527344-.535156-64.445312-7.679688-24.898438-8.933593-46.109375-24.601562-61.34375-45.304687-27.511719-37.386719-30.953125-84-8.980469-121.640625 12.601563-21.585938 31.050781-35.246094 53.355469-39.503906 47.941406-9.144532 96.851562 27.878906 102.273437 32.132812l-29.390625 37.566406c-9.425781-7.316406-62.902344-41.925781-85.042968-6.152343-12.765626 20.625-9.851563 47.511719 6.203124 69.328125 7.980469 10.851562 38.824219 45.152344 100.476563 30.949218zm0 0" fill="#eedb00"/><path d="m344.121094 239.0625c22.601562 2.046875 44.527344-.535156 64.445312-7.679688 24.898438-8.933593 46.109375-24.601562 61.34375-45.304687 27.511719-37.390625 30.953125-84 8.980469-121.640625-12.601563-21.585938-31.050781-35.246094-53.355469-39.503906-47.941406-9.144532-96.851562 27.878906-102.273437 32.132812l29.390625 37.566406c9.425781-7.316406 62.902344-41.925781 85.042968-6.152343 12.765626 20.625 9.851563 47.511719-6.203124 69.328125-7.980469 10.851562-38.824219 45.152344-100.476563 30.949218zm0 0" fill="#eedb00"/><path d="m346.011719 512h-198.773438c-13.308593 0-24.09375-10.789062-24.09375-24.09375v-38.085938c0-20.0625 16.265625-36.328124 36.332031-36.328124h174.296876c20.066406 0 36.332031 16.265624 36.332031 36.328124v38.085938c0 13.304688-10.785157 24.09375-24.09375 24.09375zm0 0" fill="#f2ad9a"/><path d="m315.570312 269.234375h-137.890624s54.863281 31.035156-8.292969 144.253906h154.476562c-63.15625-113.21875-8.292969-144.253906-8.292969-144.253906zm0 0" fill="#f4e74d"/><path d="m199.691406 324.035156c43.714844.890625 74.675782-8.765625 94.996094-18.988281 4.636719-26.617187 20.882812-35.8125 20.882812-35.8125h-137.890624s23.722656 13.421875 22.011718 54.800781zm0 0" fill="#eedb00"/><path d="m152.011719 46.921875s-135.25 231.90625 94.613281 231.90625 94.613281-231.90625 94.613281-231.90625l-94.613281-23.460937zm0 0" fill="#f9ee80"/><path d="m173.585938 130.4375c5.949218-29.101562 28.613281-51.914062 57.675781-58.046875 42.707031-9.007813 63.375-25.46875 63.375-25.46875v-11.550781l-48.019531-11.910156-94.613282 23.460937s-123.917968 212.53125 67.164063 230.675781c-55.59375-37.570312-54.875-101.6875-45.582031-147.160156zm0 0" fill="#f4e74d"/><path d="m341.238281 46.921875h-189.226562c-12.957031 0-23.460938-10.503906-23.460938-23.460937 0-12.957032 10.503907-23.460938 23.460938-23.460938h189.226562c12.957031 0 23.460938 10.503906 23.460938 23.460938 0 12.957031-10.503907 23.460937-23.460938 23.460937zm0 0" fill="#fcf5af"/><path d="m330.929688 413.488281h-168.609376c-12.785156 0-23.148437-10.363281-23.148437-23.148437s10.363281-23.148438 23.148437-23.148438h168.609376c12.785156 0 23.152343 10.363282 23.152343 23.148438-.003906 12.785156-10.367187 23.148437-23.152343 23.148437zm0 0" fill="#f9ee80"/><path d="m308.980469 483.324219h-124.710938c-11.363281 0-20.578125-9.214844-20.578125-20.578125 0-11.367188 9.214844-20.578125 20.578125-20.578125h124.710938c11.363281 0 20.578125 9.210937 20.578125 20.578125 0 11.363281-9.214844 20.578125-20.578125 20.578125zm0 0" fill="#fffcdc"/><path d="m189.125 141.875c0-9.351562-9.523438-16.929688-21.265625-16.929688s-21.265625 7.578126-21.265625 16.929688 9.523438 16.933594 21.265625 16.933594 21.265625-7.582032 21.265625-16.933594zm0 0" fill="#ff9eb1"/><path d="m346.65625 141.875c0-9.351562-9.523438-16.929688-21.265625-16.929688s-21.265625 7.578126-21.265625 16.929688 9.523438 16.933594 21.265625 16.933594 21.265625-7.582032 21.265625-16.933594zm0 0" fill="#ff9eb1"/><g fill="#454545"><path d="m251.902344 123.578125c-1.730469 2.539063-4.253906 2.84375-5.277344 2.84375s-3.589844-.277344-5.277344-2.84375c-2.34375-3.566406-7.132812-4.558594-10.699218-2.21875-3.566407 2.34375-4.558594 7.132813-2.214844 10.699219 4.035156 6.148437 10.835937 9.816406 18.191406 9.816406s14.15625-3.667969 18.191406-9.816406c2.34375-3.566406 1.351563-8.355469-2.214844-10.699219-1.308593-.855469-7.089843-3.082031-10.699218 2.21875zm0 0"/><path d="m185.410156 127.195312c-.960937-.804687-1.917968-1.019531-2.457031-1.019531s-1.574219.132813-2.460937 1.019531c-3.015626 3.015626-7.910157 3.015626-10.925782 0-3.019531-3.015624-3.019531-7.910156 0-10.925781 3.574219-3.578125 8.328125-5.546875 13.386719-5.546875 5.054687 0 9.808594 1.972656 13.382813 5.546875 3.019531 3.015625 3.019531 7.910157 0 10.925781-1.503907 1.507813-6.046876 4.082032-10.925782 0zm0 0"/><path d="m312.753906 127.195312c-.960937-.804687-1.917968-1.019531-2.457031-1.019531s-1.574219.132813-2.460937 1.019531c-3.015626 3.015626-7.910157 3.015626-10.925782 0-3.019531-3.015624-3.019531-7.910156 0-10.925781 3.574219-3.578125 8.328125-5.546875 13.386719-5.546875 5.054687 0 9.808594 1.972656 13.382813 5.546875 3.019531 3.015625 3.019531 7.910157 0 10.925781-1.503907 1.507813-6.046876 4.082032-10.925782 0zm0 0"/></g></svg>