<?xml version="1.0" encoding="UTF-8"?>
<svg width="132px" height="40px" viewBox="0 0 132 40" version="1.1" xmlns="http://www.w3.org/2000/svg" xmlns:xlink="http://www.w3.org/1999/xlink">
    <!-- Generator: sketchtool 55.2 (78181) - https://sketchapp.com -->
    <title>C06F4994-4972-4DCB-AEAA-16CAB5315B18</title>
    <desc>Created with sketchtool.</desc>
    <g id="Page-1" stroke="none" stroke-width="1" fill="none" fill-rule="evenodd">
        <g id="web2.0" transform="translate(-110.000000, -40.000000)" fill="#FFFFFF" fill-rule="nonzero">
            <g id="Stacked-Group">
                <g id="Group-31">
                    <g id="Group-8">
                        <g id="Stacked-Group-2" transform="translate(110.000000, 40.000000)">
                            <g id="Logo_Dark_hr">
                                <g id="crio-head-">
                                    <path d="M23.9359238,25.0967742 C23.9359238,24.8295396 23.7214002,24.6129032 23.4567719,24.6129032 C23.1921437,24.6129032 22.9776201,24.8295396 22.9776201,25.0967742 C22.9776201,26.1122655 22.1624303,26.935484 21.1568429,26.935484 L18.5055358,26.935484 L18.5055358,24.2052162 C19.2978492,24.0051946 20.326313,23.4738107 20.326313,22.8387097 C20.326313,22.0285071 19.2432985,21.3870968 17.9305536,21.3870968 C16.6178087,21.3870968 15.5347942,22.0285071 15.5347942,22.8387097 C15.5347942,23.5352823 16.6992077,24.1070885 17.5472321,24.2537773 L17.5472321,26.935484 L14.895925,26.935484 C13.8903376,26.935484 13.0751479,26.1122655 13.0751479,25.0967742 C13.0751479,24.8295396 12.8606243,24.6129032 12.595996,24.6129032 C12.3313677,24.6129032 12.1168441,24.8295396 12.1168441,25.0967742 C12.1168441,26.475243 13.1009815,27.6215904 14.398432,27.8583851 C14.4221962,28.04114 14.4558961,28.2885496 14.4995875,28.6010899 C14.6035977,29.3451133 14.7645032,30.4601448 14.9823582,31.9465864 C15.062701,32.4948309 15.5252263,32.9031245 16.073999,32.9102293 L17.8080075,32.9326792 C17.9141539,32.9340533 17.9928512,32.9306965 18.0526953,32.9178336 C18.0938919,32.930108 18.1373865,32.9369435 18.1823561,32.9375259 L19.9579613,32.9606083 C20.5151771,32.9677283 20.9925785,32.5594581 21.0773141,32.003252 L21.7104183,27.8475451 C22.9800407,27.5883909 23.9359238,26.4553112 23.9359238,25.0967742 Z M22.2393698,7.8102776 L33.448492,14.27533 C34.9970715,15.1684995 35.8721408,16.905413 35.6753208,18.6953333 L34.4968653,29.4124579 C34.3330405,30.9023133 33.4478491,32.2129907 32.1341395,32.9108763 L19.9487057,39.3841784 C18.645349,40.0765643 17.0879843,40.0765643 15.7846276,39.3841784 L3.59919395,32.9108763 C2.28548435,32.2129907 1.40029268,30.9023133 1.23646806,29.4124579 L0.0580124005,18.6953333 C-0.138807344,16.905413 0.736261952,15.1684995 2.28484131,14.27533 L14.6191814,7.16128904 L13.2249517,2.95088659 L15.6369565,4.28534517 L14.3506975,0.0680625736 L17.746456,3.61313387 L17.2681329,1.15307549 L22.2393698,7.8102776 Z M8.76278096,18.6731589 C8.76278096,19.2209373 8.97573733,19.6956786 9.33066467,20.0608643 C9.68559197,20.4260499 10.1469975,20.6451613 10.6793885,20.6451613 C10.8923449,20.6451613 11.0698085,20.6086427 11.2472722,20.5721242 C12.0281123,20.3164942 12.595996,19.5861229 12.595996,18.7096774 C12.595996,17.6506391 11.7441704,16.7741935 10.7148812,16.7741935 C10.2534757,16.7741935 9.82756291,16.9567864 9.50812832,17.2124163 C9.01123008,17.5045648 8.76278096,18.0523433 8.76278096,18.6731589 Z M22.8179027,18.6731589 C22.8179027,19.2209373 23.0308591,19.6956786 23.3857865,20.0608643 C23.7407138,20.4260499 24.2021193,20.6451613 24.7345103,20.6451613 C24.9474667,20.6451613 25.1249303,20.6086427 25.302394,20.5721242 C26.0832341,20.3164942 26.6511178,19.5861229 26.6511178,18.7096774 C26.6511178,17.6506391 25.7992922,16.7741935 24.770003,16.7741935 C24.3085975,16.7741935 23.8826847,16.9567864 23.5632501,17.2124163 C23.0663519,17.5045648 22.8179027,18.0523433 22.8179027,18.6731589 Z M33.7106221,12.8387097 C33.7106221,12.8387097 33.9661699,12.3225806 33.7106221,11.7419355 C33.2953573,10.8064516 32.5606576,9.12903227 31.8259581,8.67741936 C31.0273717,8.22580645 28.88716,8.38709677 27.8969128,8.48387096 C27.8330259,8.48387096 27.2899869,8.61290323 27.1941565,8.8064516 C27.1302696,8.96774195 26.459457,10.0967742 26.459457,10.0967742 L27.0983261,10.4516129 L33.1036965,13.9032258 L33.7106221,12.8387097 Z M26.0275446,8.27740611 L26.0513127,8.22940181 C26.3861555,7.55312048 27.2248595,7.22397096 27.8147848,7.19556549 C29.9575203,6.98815448 31.4742803,6.99967051 32.4502653,7.55160515 L32.4903141,7.57522768 C33.1679181,7.9917444 33.6887981,8.74994243 34.2611773,9.88884845 C34.4602029,10.284865 34.5872883,10.5624441 34.8782341,11.2178858 C35.15726,11.851877 35.15726,12.4815225 34.9937037,13.0458431 C34.9496403,13.1978764 34.9000667,13.3216406 34.8534661,13.4157595 L34.8366741,13.4496743 L33.5766328,15.6597213 L32.4716699,15.0246391 L26.4825602,11.5822141 L24.6812362,10.5817284 L25.3638055,9.43290869 C25.3861632,9.39527877 25.4258258,9.32828496 25.4769686,9.24149021 C25.5621894,9.09686144 25.6473635,8.95135613 25.7265358,8.81477128 C25.7334697,8.80280683 25.7334697,8.80280683 25.7403945,8.79084771 C25.8268994,8.64142139 25.8998895,8.51350413 25.9545625,8.41518232 C25.9828299,8.36434749 26.0052255,8.32316069 26.0204294,8.29414941 C26.0223864,8.2904152 26.0224049,8.29038195 26.0085218,8.32543144 L26.0275446,8.27740611 Z M9.30581973,10.0322581 C9.17804592,9.8064516 8.66695056,8.93548387 8.60306365,8.8064516 C8.50723328,8.58064517 7.96419448,8.48387096 7.90030757,8.48387096 C6.87811688,8.38709677 4.76984861,8.22580645 3.97126216,8.67741936 C3.23656259,9.09677419 2.50186305,10.8064516 2.08659809,11.7419355 C1.83105042,12.3225806 2.08659809,12.8387097 2.08659809,12.8387097 L2.69352381,13.8709677 L9.30581973,10.0322581 Z M9.75088552,8.23871515 C9.77766024,8.28752496 9.89907019,8.49974781 10.0651684,8.78643456 L10.0684194,8.79204571 C10.1002881,8.84704763 10.2367218,9.08227123 10.2692626,9.13845507 C10.3403438,9.26118117 10.3855586,9.33968264 10.4152073,9.3920788 L11.0474986,10.5094864 L2.23807645,15.6237182 L0.964381059,13.4574196 L0.943754165,13.4157595 C0.897153691,13.3216406 0.847580021,13.1978764 0.803516427,13.0458431 C0.639960253,12.4815225 0.639960253,11.851877 0.920649931,11.2141214 C1.26069601,10.4480861 1.33604175,10.2822082 1.52997245,9.89244995 C2.11427695,8.71812584 2.63733658,7.95663237 3.34695488,7.55160515 C4.32207061,7.00016221 5.77184997,6.98850453 7.97185437,7.19468664 C8.60496061,7.21471059 9.40345288,7.50125883 9.75088552,8.23871515 Z M15.4484825,28.4658139 C15.4176893,28.2455387 15.3919503,28.0582443 15.3712859,27.9041021 C15.8920884,27.9056443 16.568893,27.9092696 17.5386519,27.9153517 C17.4909561,29.3685819 17.4505129,30.4704203 17.4173526,31.2202813 C17.4038437,31.5257605 17.3915631,31.7723216 17.3805644,31.9593237 L16.0862839,31.9425669 C16.0078872,31.941552 15.9418137,31.8832256 15.9303364,31.8049069 C15.7127672,30.3204157 15.5521315,29.2072531 15.4484825,28.4658139 Z M18.6520257,31.9757851 L18.5171867,27.9216149 C19.662422,27.9289595 20.2873138,27.9326848 20.7276163,27.9343459 L20.1301538,31.8561 C20.1180487,31.9355581 20.0498485,31.9938824 19.9702462,31.9928652 L18.6520257,31.9757851 Z" id="Combined-Shape"></path>
                                </g>
                                <path d="M63.116,25.0933333 C62.4439965,26.0053379 61.5720053,26.7453304 60.5,27.3133333 C59.4279947,27.8813363 58.1400075,28.1653333 56.636,28.1653333 C55.3399936,28.1653333 54.1440056,27.9453355 53.048,27.5053333 C51.9519944,27.0653312 51.008004,26.4493373 50.216,25.6573333 C49.423996,24.8653294 48.8040021,23.9213388 48.356,22.8253333 C47.9079979,21.7293278 47.684,20.5253399 47.684,19.2133333 C47.684,17.8853267 47.9119976,16.6733388 48.368,15.5773333 C48.8240024,14.4813279 49.455996,13.5453372 50.264,12.7693333 C51.072004,11.9933295 52.0279944,11.3893355 53.132,10.9573333 C54.2360056,10.5253312 55.4359936,10.3093333 56.732,10.3093333 C57.3080029,10.3093333 57.8919971,10.3653328 58.484,10.4773333 C59.0760029,10.5893339 59.6439973,10.7573322 60.188,10.9813333 C60.7320027,11.2053345 61.2279979,11.4813317 61.676,11.8093333 C62.1240021,12.137335 62.5079984,12.5173312 62.828,12.9493333 L60.956,14.3893333 C60.5399979,13.8133305 59.9520037,13.3373352 59.192,12.9613333 C58.4319963,12.5853314 57.6120045,12.3973333 56.732,12.3973333 C55.7399949,12.3973333 54.848004,12.5773315 54.056,12.9373333 C53.263996,13.2973351 52.5880027,13.7893302 52.028,14.4133333 C51.4679971,15.0373365 51.0360016,15.7613292 50.732,16.5853333 C50.4279984,17.4093375 50.276,18.2853287 50.276,19.2133333 C50.276,20.1733381 50.4239984,21.0693292 50.72,21.9013333 C51.0160016,22.7333375 51.4399973,23.4573302 51.992,24.0733333 C52.5440027,24.6893364 53.215996,25.1733316 54.008,25.5253333 C54.800004,25.8773351 55.684,26.0533333 56.66,26.0533333 C57.6200048,26.0533333 58.491996,25.8613353 59.276,25.4773333 C60.060004,25.0933314 60.7079973,24.533337 61.22,23.7973333 L63.116,25.0933333 Z M65.42,18.8053333 C65.42,18.5013318 65.412,18.1093357 65.396,17.6293333 C65.38,17.1493309 65.3560003,16.7253352 65.324,16.3573333 L67.46,16.3573333 C67.4920003,16.6453348 67.516,16.9773314 67.532,17.3533333 C67.548,17.7293352 67.556,18.0373321 67.556,18.2773333 L67.628,18.2773333 C67.9480016,17.60533 68.4159968,17.0653354 69.032,16.6573333 C69.6480032,16.2493313 70.3399963,16.0453333 71.108,16.0453333 C71.4600019,16.0453333 71.7559987,16.077333 71.996,16.1413333 L71.9,18.2293333 C71.5799984,18.1493329 71.2360019,18.1093333 70.868,18.1093333 C70.324,18.1093333 69.8520019,18.2093323 69.452,18.4093333 C69.0519981,18.6093343 68.7200013,18.8773317 68.456,19.2133333 C68.1919987,19.549335 67.9960005,19.9373311 67.868,20.3773333 C67.7399995,20.8173355 67.676,21.2773309 67.676,21.7573333 L67.676,27.7333333 L65.42,27.7333333 L65.42,18.8053333 Z M76.388,27.7333333 L74.132,27.7333333 L74.132,16.3573333 L76.388,16.3573333 L76.388,27.7333333 Z M76.772,12.2533333 C76.772,12.6693354 76.6240016,13.013332 76.328,13.2853333 C76.0319984,13.5573347 75.6760021,13.6933333 75.26,13.6933333 C74.8439979,13.6933333 74.4920013,13.5533347 74.204,13.2733333 C73.9159987,12.9933319 73.772,12.6533353 73.772,12.2533333 C73.772,11.8373313 73.9159987,11.4893347 74.204,11.2093333 C74.4920013,10.9293319 74.8439979,10.7893333 75.26,10.7893333 C75.6760021,10.7893333 76.0319984,10.9293319 76.328,11.2093333 C76.6240016,11.4893347 76.772,11.8373313 76.772,12.2533333 Z M91.844,22.0213333 C91.844,22.9013377 91.6880016,23.7093297 91.376,24.4453333 C91.0639984,25.181337 90.6320027,25.8173306 90.08,26.3533333 C89.5279973,26.889336 88.8760037,27.3053317 88.124,27.6013333 C87.3719963,27.8973349 86.5640043,28.0453333 85.7,28.0453333 C84.8359957,28.0453333 84.0280037,27.8973349 83.276,27.6013333 C82.5239963,27.3053317 81.8760027,26.889336 81.332,26.3533333 C80.7879973,25.8173306 80.3600016,25.181337 80.048,24.4453333 C79.7359984,23.7093297 79.58,22.9013377 79.58,22.0213333 C79.58,21.1413289 79.7359984,20.337337 80.048,19.6093333 C80.3600016,18.8813297 80.7879973,18.253336 81.332,17.7253333 C81.8760027,17.1973307 82.5239963,16.7853348 83.276,16.4893333 C84.0280037,16.1933318 84.8359957,16.0453333 85.7,16.0453333 C86.5640043,16.0453333 87.3719963,16.1933318 88.124,16.4893333 C88.8760037,16.7853348 89.5279973,17.1973307 90.08,17.7253333 C90.6320027,18.253336 91.0639984,18.8813297 91.376,19.6093333 C91.6880016,20.337337 91.844,21.1413289 91.844,22.0213333 Z M89.492,22.0213333 C89.492,21.4773306 89.408,20.9573358 89.24,20.4613333 C89.0719992,19.9653309 88.8280016,19.5293352 88.508,19.1533333 C88.1879984,18.7773314 87.7920024,18.4773345 87.32,18.2533333 C86.8479976,18.0293322 86.3080029,17.9173333 85.7,17.9173333 C85.0919971,17.9173333 84.5520024,18.0293322 84.08,18.2533333 C83.6079976,18.4773345 83.2120016,18.7773314 82.892,19.1533333 C82.5719984,19.5293352 82.3280008,19.9653309 82.16,20.4613333 C81.9919992,20.9573358 81.908,21.4773306 81.908,22.0213333 C81.908,22.5653361 81.9919992,23.0853309 82.16,23.5813333 C82.3280008,24.0773358 82.5719984,24.5173314 82.892,24.9013333 C83.2120016,25.2853353 83.6079976,25.5893322 84.08,25.8133333 C84.5520024,26.0373345 85.0919971,26.1493333 85.7,26.1493333 C86.3080029,26.1493333 86.8479976,26.0373345 87.32,25.8133333 C87.7920024,25.5893322 88.1879984,25.2853353 88.508,24.9013333 C88.8280016,24.5173314 89.0719992,24.0773358 89.24,23.5813333 C89.408,23.0853309 89.492,22.5653361 89.492,22.0213333 Z M97.46,26.2933333 C97.46,26.7093355 97.3080016,27.0773317 97.004,27.3973333 C96.6999984,27.7173349 96.3160024,27.8773333 95.852,27.8773333 C95.4039979,27.8773333 95.0240016,27.7213349 94.712,27.4093333 C94.3999984,27.0973317 94.244,26.7333333 94.244,26.3173333 C94.244,25.8853312 94.3959984,25.5133349 94.7,25.2013333 C95.0040016,24.8893318 95.3879976,24.7333333 95.852,24.7333333 C96.3160024,24.7333333 96.6999984,24.8853318 97.004,25.1893333 C97.3080016,25.4933349 97.46,25.8613312 97.46,26.2933333 Z M116.588,19.1893333 C116.588,20.6773408 116.312003,21.9613279 115.76,23.0413333 C115.207997,24.1213387 114.480005,25.0093299 113.576,25.7053333 C112.671995,26.4013368 111.652006,26.9133317 110.516,27.2413333 C109.379994,27.5693349 108.228006,27.7333333 107.06,27.7333333 L100.724,27.7333333 L100.724,10.7413333 L106.868,10.7413333 C108.068006,10.7413333 109.251994,10.8813319 110.42,11.1613333 C111.588006,11.4413347 112.627995,11.9053301 113.54,12.5533333 C114.452005,13.2013366 115.187997,14.0693279 115.748,15.1573333 C116.308003,16.2453388 116.588,17.5893253 116.588,19.1893333 Z M112.316,19.1893333 C112.316,18.2293285 112.160002,17.4333365 111.848,16.8013333 C111.535998,16.1693302 111.120003,15.6653352 110.6,15.2893333 C110.079997,14.9133315 109.488003,14.6453341 108.824,14.4853333 C108.159997,14.3253325 107.476003,14.2453333 106.772,14.2453333 L104.732,14.2453333 L104.732,24.1813333 L106.676,24.1813333 C107.412004,24.1813333 108.119997,24.0973342 108.8,23.9293333 C109.480003,23.7613325 110.079997,23.4853353 110.6,23.1013333 C111.120003,22.7173314 111.535998,22.2053365 111.848,21.5653333 C112.160002,20.9253301 112.316,20.1333381 112.316,19.1893333 Z M131.756,21.7093333 C131.756,22.6853382 131.580002,23.5693294 131.228,24.3613333 C130.875998,25.1533373 130.396003,25.8253306 129.788,26.3773333 C129.179997,26.929336 128.476004,27.3573317 127.676,27.6613333 C126.875996,27.9653349 126.020005,28.1173333 125.108,28.1173333 C124.211995,28.1173333 123.360004,27.9653349 122.552,27.6613333 C121.743996,27.3573317 121.040003,26.929336 120.44,26.3773333 C119.839997,25.8253306 119.364002,25.1533373 119.012,24.3613333 C118.659998,23.5693294 118.484,22.6853382 118.484,21.7093333 C118.484,20.7333285 118.659998,19.8533373 119.012,19.0693333 C119.364002,18.2853294 119.839997,17.6213361 120.44,17.0773333 C121.040003,16.5333306 121.743996,16.1173348 122.552,15.8293333 C123.360004,15.5413319 124.211995,15.3973333 125.108,15.3973333 C126.020005,15.3973333 126.875996,15.5413319 127.676,15.8293333 C128.476004,16.1173348 129.179997,16.5333306 129.788,17.0773333 C130.396003,17.6213361 130.875998,18.2853294 131.228,19.0693333 C131.580002,19.8533373 131.756,20.7333285 131.756,21.7093333 Z M127.964,21.7093333 C127.964,21.3253314 127.900001,20.9493352 127.772,20.5813333 C127.643999,20.2133315 127.460001,19.8893347 127.22,19.6093333 C126.979999,19.3293319 126.684002,19.1013342 126.332,18.9253333 C125.979998,18.7493325 125.572002,18.6613333 125.108,18.6613333 C124.643998,18.6613333 124.236002,18.7493325 123.884,18.9253333 C123.531998,19.1013342 123.240001,19.3293319 123.008,19.6093333 C122.775999,19.8893347 122.600001,20.2133315 122.48,20.5813333 C122.359999,20.9493352 122.3,21.3253314 122.3,21.7093333 C122.3,22.0933353 122.359999,22.4693315 122.48,22.8373333 C122.600001,23.2053352 122.779999,23.5373319 123.02,23.8333333 C123.260001,24.1293348 123.555998,24.3653325 123.908,24.5413333 C124.260002,24.7173342 124.667998,24.8053333 125.132,24.8053333 C125.596002,24.8053333 126.003998,24.7173342 126.356,24.5413333 C126.708002,24.3653325 127.003999,24.1293348 127.244,23.8333333 C127.484001,23.5373319 127.663999,23.2053352 127.784,22.8373333 C127.904001,22.4693315 127.964,22.0933353 127.964,21.7093333 Z" id="Crio.Do"></path>
                            </g>
                        </g>
                    </g>
                </g>
            </g>
        </g>
    </g>
</svg>