<svg id="Layer_1" data-name="Layer 1" xmlns="http://www.w3.org/2000/svg" viewBox="0 0 1081.42 260.56"><defs><style>.cls-1{fill:#2f6db4;}.cls-2{fill:#683593;}.cls-3{fill:#faac2f;}.cls-4{fill:#2bbff0;}.cls-5{fill:#94c83d;}.cls-6{fill:#3782c4;}.cls-7{fill:#cf1c68;}</style></defs><title>Townscript Color Logo</title><path class="cls-1" d="M363.63,258.39H339.46a8.11,8.11,0,1,1,0-16.21h66.13a8.11,8.11,0,0,1,0,16.21H381.27v75.37a8.82,8.82,0,0,1-17.64,0Z" transform="translate(-21.33 -147.8)"/><path class="cls-1" d="M409,304.61v-.28c0-21.48,17.07-39.26,40.11-39.26s40,17.5,40,39v.29c0,21.33-17.07,39.1-40.25,39.1C425.93,343.43,409,325.94,409,304.61Zm62.86,0v-.28c0-13.23-9.53-24.18-23-24.18C435,280.15,426.21,291,426.21,304v.29c0,13.08,9.53,24,22.9,24C463,328.36,471.86,317.55,471.86,304.61Z" transform="translate(-21.33 -147.8)"/><path class="cls-1" d="M519.79,335.33,499.6,278.16a14.16,14.16,0,0,1-.86-4.41,8.06,8.06,0,0,1,8.4-8c4.26,0,7.11,2.84,8.39,6.82L530,318.12l14.65-45.51c1.28-4,4.41-6.82,8.82-6.82h1c4.41,0,7.54,2.84,8.82,6.82l14.79,45.51,14.65-45.65c1.14-3.7,3.84-6.68,8.39-6.68a8,8,0,0,1,8.1,8,14,14,0,0,1-.71,3.84l-20.47,57.74c-1.85,5.26-5.41,7.68-9.53,7.68H578c-4.27,0-7.82-2.42-9.39-7.4L553.92,291l-14.79,44.65c-1.56,5-5.12,7.4-9.24,7.4h-.57C525.05,343,521.5,340.59,519.79,335.33Z" transform="translate(-21.33 -147.8)"/><path class="cls-1" d="M625.46,274.46a8.5,8.5,0,0,1,8.54-8.67,8.62,8.62,0,0,1,8.67,8.67v3.7c4.84-7,11.81-13.09,23.47-13.09,16.92,0,26.73,11.39,26.73,28.73v40.11a8.38,8.38,0,0,1-8.53,8.53,8.5,8.5,0,0,1-8.67-8.53V299.06c0-11.65-5.84-18.34-16.07-18.34-10,0-16.93,7-16.93,18.63v34.56a8.61,8.61,0,0,1-17.21,0Z" transform="translate(-21.33 -147.8)"/><path class="cls-1" d="M710.8,334.19a6.59,6.59,0,0,1-3.27-6,6.89,6.89,0,0,1,7-7,7.46,7.46,0,0,1,3.69,1c7.25,4.83,14.79,7.25,21.62,7.25,7.39,0,11.66-3.13,11.66-8.1v-.29c0-5.83-8-7.82-16.78-10.53-11.09-3.13-23.47-7.67-23.47-22v-.28c0-14.22,11.81-22.9,26.74-22.9a51.67,51.67,0,0,1,23.61,6.12,7.3,7.3,0,0,1,4.12,6.54,6.93,6.93,0,0,1-7.11,7,6.75,6.75,0,0,1-3.41-.86C749.05,281,742.79,279,737.53,279c-6.68,0-10.52,3.13-10.52,7.4v.28c0,5.55,8.11,7.83,16.92,10.67,11,3.41,23.33,8.39,23.33,21.9v.29c0,15.78-12.23,23.6-27.88,23.6A51.23,51.23,0,0,1,710.8,334.19Z" transform="translate(-21.33 -147.8)"/><path class="cls-1" d="M780.77,304.61v-.28c0-21.33,16.5-39.26,39.11-39.26,11.8,0,19.91,3.85,26.31,9.39a8.17,8.17,0,0,1,2.7,6,7.84,7.84,0,0,1-8,7.82,8.69,8.69,0,0,1-5.12-1.71c-4.41-3.7-9.25-6.4-16.07-6.4C807.22,280.15,798,291,798,304v.29c0,13.37,9.24,24,22.47,24,6.82,0,12.08-2.7,16.78-6.68a7.25,7.25,0,0,1,12.09,5.69,6.72,6.72,0,0,1-2.42,5.4c-6.69,6.4-14.79,10.66-27.31,10.66C797.27,343.43,780.77,325.94,780.77,304.61Z" transform="translate(-21.33 -147.8)"/><path class="cls-1" d="M866.1,274.46a8.5,8.5,0,0,1,8.54-8.67,8.62,8.62,0,0,1,8.67,8.67v7.68c4-9.38,11.38-16.5,18.91-16.5,5.41,0,8.54,3.56,8.54,8.54a8.08,8.08,0,0,1-6.83,8.25c-12.23,2.13-20.62,11.52-20.62,29.29v22.19a8.59,8.59,0,0,1-8.67,8.53,8.47,8.47,0,0,1-8.54-8.53Z" transform="translate(-21.33 -147.8)"/><path class="cls-1" d="M924.56,246.45c0-5.13,4.26-8.39,9.81-8.39s9.81,3.26,9.81,8.39v.85c0,5.12-4.26,8.53-9.81,8.53s-9.81-3.41-9.81-8.53Zm1.28,28a8.49,8.49,0,0,1,8.53-8.67,8.62,8.62,0,0,1,8.67,8.67v59.45a8.6,8.6,0,0,1-17.2,0Z" transform="translate(-21.33 -147.8)"/><path class="cls-1" d="M965.51,274.46a8.5,8.5,0,0,1,8.54-8.67,8.62,8.62,0,0,1,8.67,8.67v4.7c5.55-7.83,13.37-14.09,25.6-14.09,17.64,0,34.84,13.94,34.84,39v.29c0,24.89-17.06,39-34.84,39-12.51,0-20.34-6.25-25.6-13.22v26.59a8.61,8.61,0,0,1-17.21,0Zm60.16,29.87V304c0-14.5-9.81-24-21.47-24s-21.9,9.67-21.9,24v.29c0,14.36,10.23,24,21.9,24S1025.67,319.12,1025.67,304.33Z" transform="translate(-21.33 -147.8)"/><path class="cls-1" d="M1064.5,321V281.43h-2.84a7.4,7.4,0,1,1,0-14.79h2.84v-12.8a8.61,8.61,0,0,1,17.21,0v12.8h13.51a7.4,7.4,0,1,1,0,14.79h-13.51v36.84c0,6.68,3.41,9.38,9.24,9.38a40.55,40.55,0,0,0,4.27-.43,7.25,7.25,0,0,1,7.25,7.11,7.41,7.41,0,0,1-4.55,6.69,34.22,34.22,0,0,1-11.8,2C1073.46,343,1064.5,337.46,1064.5,321Z" transform="translate(-21.33 -147.8)"/><polygon class="cls-2" points="254.05 140.62 166.58 140.62 250.75 27.64 243.17 21.99 174.56 114.08 172.28 112.39 154.13 136.74 81.76 50.06 74.5 56.12 145.04 140.62 20.09 140.62 20.09 150.07 144.2 150.07 82.47 232.91 90.05 238.56 154.55 152 224.45 235.72 231.71 229.66 165.25 150.07 254.05 150.07 254.05 140.62"/><path class="cls-3" d="M121.12,221.29a24.81,24.81,0,1,1,3.14-34.95,24.81,24.81,0,0,1-3.14,34.95" transform="translate(-21.33 -147.8)"/><path class="cls-4" d="M268.18,396.72a24.81,24.81,0,1,1-2.53-35,24.81,24.81,0,0,1,2.53,35" transform="translate(-21.33 -147.8)"/><path class="cls-2" d="M224.58,289.59a46.09,46.09,0,1,1-46.09-46.08,46.09,46.09,0,0,1,46.09,46.08" transform="translate(-21.33 -147.8)"/><path class="cls-5" d="M132.41,383.54a24.82,24.82,0,1,1-24.82-24.82,24.81,24.81,0,0,1,24.82,24.82" transform="translate(-21.33 -147.8)"/><path class="cls-6" d="M71,289.59a24.82,24.82,0,1,1-24.81-24.81A24.81,24.81,0,0,1,71,289.59" transform="translate(-21.33 -147.8)"/><path class="cls-1" d="M299.88,289.14a24.81,24.81,0,1,1-28.49-20.49,24.81,24.81,0,0,1,28.49,20.49" transform="translate(-21.33 -147.8)"/><path class="cls-7" d="M293.11,172.61a24.82,24.82,0,1,0-24.81,24.82,24.81,24.81,0,0,0,24.81-24.82" transform="translate(-21.33 -147.8)"/></svg>