<svg xmlns="http://www.w3.org/2000/svg" viewBox="0 0 78.15 105.12"><defs><style>.cls-1{fill:#1089ff;}</style></defs><title>Asset 1</title><g id="Layer_2" data-name="Layer 2"><g id="Layer_1-2" data-name="Layer 1"><path class="cls-1" d="M66,65.59a1.55,1.55,0,0,0-2.18.15l-5.52,6.35-2-2.46a1.54,1.54,0,1,0-2.4,1.93l3.13,3.9a1.57,1.57,0,0,0,1.17.57,1.52,1.52,0,0,0,1.19-.53l6.74-7.74A1.54,1.54,0,0,0,66,65.59Z"/><path class="cls-1" d="M44.25,84.93H23.53a1.54,1.54,0,1,0,0,3.08H44.25a1.54,1.54,0,1,0,0-3.08Z"/><path class="cls-1" d="M44.25,92H23.53a1.54,1.54,0,0,0,0,3.08H44.25a1.54,1.54,0,1,0,0-3.08Z"/><path class="cls-1" d="M75.67,65.75c-1.86-1.81.91-4-1-6.66s-4.9-.69-6-3c-.67-1.06-.92-2.91-3-3.59-3.06-1-4.36,2.32-6.64,1.12l-1-.54c-.36-2-1.09-5-4.77-6.52-.58-.24,2.16.81-8.35-3.11l-3-1.6V40.3A13.3,13.3,0,0,0,43.55,39h8.32a4,4,0,0,0,3.26-6.06c-3.87-6.26.23-11.88-3.16-20.58a1.54,1.54,0,0,0-2.87,1.12A18.29,18.29,0,0,1,50.32,20a6.65,6.65,0,0,0-2.07-.69,2.76,2.76,0,0,0-1.35-2.92,2.4,2.4,0,0,0-2.56.25,12.29,12.29,0,0,1-4.28,2c-.08-.55.38-2.12-1-2.92a2.05,2.05,0,0,0-2.06,0c-2.23,1.37-8,4.4-13.78,2.86a2.15,2.15,0,0,0-2.12.58,6.85,6.85,0,0,0-2.66.76c0-14.95,17-22.61,27.16-12.13a1.54,1.54,0,1,0,2.21-2.14C36.74-5.64,18.18.88,15.63,16.42c-.6,3.46-.18,8.5-.34,11.18C14.94,32.15,13,32.8,13,35c-.5.47-2.46,1.26-2.86,3.72a4.49,4.49,0,0,0,.13,2L8.68,41.88a4.63,4.63,0,0,0-1.9,3.73v8.72a5.5,5.5,0,0,0-3.94,5.26v2.47A3,3,0,0,0,.05,65.57l1.59,8.66a3.73,3.73,0,0,0,3.67,3.06H7.92l2.65,24.1a4.2,4.2,0,0,0,4.17,3.73H40.65a1.54,1.54,0,1,0,0-3.08H14.74a1.11,1.11,0,0,1-1.1-1L11,77.29h5.22a1.54,1.54,0,0,0,0-3.08H5.31a.65.65,0,0,1-.64-.54L3.1,65.13H44.87c-.63,1.27-2.94,2-2.94,4.59s2.19,3.29,2.88,4.49H23.43a1.54,1.54,0,1,0,0,3.08H44.78a3.74,3.74,0,0,0,3,4.53c1.18.3,2.91,0,3.67,1.53l.84,1.71a3.69,3.69,0,0,0,3.53,2l-1.39,14a1,1,0,0,1-1,.88H47.84a1.54,1.54,0,0,0,0,3.08h5.61a4,4,0,0,0,4-3.66L59,85.8c2.27-1.14,3.53,2.13,6.6,1.14,2.08-.68,2.36-2.55,3-3.59.78-1.57,2.46-1.22,3.68-1.53a3.7,3.7,0,0,0,3-4.27L75,75.71c-.44-2.57,3.13-2.73,3.13-6C78.15,67.53,76.46,66.69,75.67,65.75ZM48.25,22.49c2.76.85,2.76,3.76,0,4.6Zm-.1,7.77a6.84,6.84,0,0,0,2.4-.83,14.21,14.21,0,0,0,2,5.12.88.88,0,0,1-.63,1.36H46.16A13.85,13.85,0,0,0,48.15,30.26ZM20.43,22.53v4.53C17.73,26.22,17.73,23.37,20.43,22.53Zm-2.26,6.88a6.49,6.49,0,0,0,2.3.81,12.8,12.8,0,0,0,1.78,5.69H20.34a4.6,4.6,0,0,0-3.61-2.25A17,17,0,0,0,18.17,29.41Zm-4.38,8.84c1.7-1.22,1.74-1.26,1.88-1.34a1.5,1.5,0,0,1,1.59,2.53c-1.56,1-1.82,1.53-2.59,1.53a1.5,1.5,0,0,1-.88-2.72ZM9.37,62.05H5.92V59.59A2.4,2.4,0,0,1,10.11,58Zm1.35-7.38a5,5,0,0,0-.86-.34V45.61c0-1.19,1.16-1.47,2.21-2.37a4.57,4.57,0,0,0,5.27-.06c1-.88,3.12-1.59,3.56-4.19h3.89A13.75,13.75,0,0,0,27,40.55v1.29l-3.12,1.64c-8.2,3.06-9.18,3.2-10.71,4.69C11.2,50.09,11.23,51.8,10.72,54.67Zm11.14,3.48c-1.31,1.47-.39,3.15-.32,3.9H13.79c-.07-1.95.23-3-.44-4.61l.87-4.79a3.37,3.37,0,0,1,1-2.17c1-1,1.79-1.15,6.77-3-.93,2.71-1.16,3.36-1.18,3.41a3,3,0,0,0,.51,2.68l2.14,2.78Zm2.83,3.9h0l-.44-2,1.91-2.16a2.34,2.34,0,0,0,.1-3l-2.48-3.22,2-5.75,1.3-.68.36,16.76ZM23.51,29.33V21.94c5.37,1,10.49-1,13.48-2.57a2.69,2.69,0,0,0,3.4,2.45,16.24,16.24,0,0,0,4.78-2v8.72c0,7.85-8.15,13.46-16.24,9.52A9.76,9.76,0,0,1,23.51,29.33ZM30.16,46.5,32,48.26l-1.73,1.63ZM38,62.05h-2.3v-6.7a1.54,1.54,0,1,0-3.08,0v6.7H30.5l-.17-8,3.89-3.65L38.32,54Zm.42-12-2-1.76,2.09-1.9Zm.26-7.94-4.49,4.08-4.15-4v-.2a15.31,15.31,0,0,0,8.64-.16v.32Zm3.51,15.84,1.91,2.16-.44,2H41.12l.59-16.77,1.19.63,1.71,5.81-2.48,3.22A2.35,2.35,0,0,0,42.23,57.93Zm5.35-7-1-3.51c5.57,2.1,5.5,2,6.16,2.39a4.29,4.29,0,0,1,1.95,2.69c-3.26.86-2.33,4.51-4.93,4.89-1.74.27-2.36.24-3.23.75l-1.55-1.75,2.14-2.78A3,3,0,0,0,47.58,50.88ZM72,76.23l.32,1.84a.63.63,0,0,1-.53.72l-.21,0c-.67.18-4.09-.07-5.68,3.16-.78,1.39-.75,1.87-1.21,2-1,.31-3.39-2.86-7.1-.93a10,10,0,0,1-2,1,.63.63,0,0,1-.56-.35L54.2,82c-1.66-3.37-5.26-2.92-6-3.24-.58-.24-.36-.9-.19-1.72,1.07-5.19-3-6.24-3-7.31,0-.48.47-.6,1.55-1.77a6.26,6.26,0,0,0,.77-.92c1.31-2,.74-4,.46-5.65a.61.61,0,0,1,.52-.72l1.86-.27c3.54-.52,4.38-3.86,4.76-4.45a1.18,1.18,0,0,0,.11-.19.64.64,0,0,1,.84-.28c2.23,1.13,3.83,2.55,7.65.35,1.61-.93,1.32-.2,2.35,1.63,1.85,3.76,5.72,2.65,6.31,3.45.18.26.09.47.08.69,0,.7-1.32,3.86,1.25,6.36l1.36,1.33a.62.62,0,0,1,.19.44C75.07,70.71,71.27,72.09,72,76.23Z"/></g></g></svg>