<svg xmlns="http://www.w3.org/2000/svg" viewBox="0 0 114.43 111.4"><defs><style>.cls-1{fill:#1089ff;stroke:#1089ff;stroke-miterlimit:10;stroke-width:2px;}</style></defs><title>Asset 3</title><g id="Layer_2" data-name="Layer 2"><g id="Layer_1-2" data-name="Layer 1"><path class="cls-1" d="M68.9,49.39l-1.14-.32a8.85,8.85,0,0,1-10.87,6.18l-.31,1.14a10.2,10.2,0,0,0,2.66.36A10,10,0,0,0,68.9,49.39Z"/><path class="cls-1" d="M59.81,48.25H60A2.06,2.06,0,0,0,62,46.19V41.33A2.07,2.07,0,0,0,60,39.26h-.15a2.07,2.07,0,0,0-2.06,2.07v4.86A2.06,2.06,0,0,0,59.81,48.25Zm-.89-6.92a.89.89,0,0,1,.89-.89H60a.89.89,0,0,1,.88.89v4.86a.88.88,0,0,1-.88.88h-.15a.88.88,0,0,1-.89-.88Z"/><circle class="cls-1" cx="51.5" cy="35.58" r="1.6"/><circle class="cls-1" cx="68.26" cy="35.58" r="1.6"/><path class="cls-1" d="M110.33,62.49H89.24a3.12,3.12,0,0,0-3.11,3.11V79.4L67.22,72.28l-.07-.08V63.8a8.19,8.19,0,0,0,7.78-7.06l2.24-16.49h1.11a4.13,4.13,0,0,0,4.12-4.12V33.75a4.07,4.07,0,0,0-1.35-3h20.27a.6.6,0,0,0,.59-.59,6.3,6.3,0,0,0-6.3-6.29H79.83L74.58,1.45A.59.59,0,0,0,74,1H45.76a.59.59,0,0,0-.57.45L39.93,23.84H24.15a6.29,6.29,0,0,0-6.29,6.29.59.59,0,0,0,.59.59H38.52a4.07,4.07,0,0,0-1.35,3v2.38a4.13,4.13,0,0,0,4.12,4.12H42.6l2.23,16.47a8.21,8.21,0,0,0,7.78,7.06V72.2l0,0L42.38,76.08c.06-.23.13-.46.18-.69l.12-.49-.46-.2a15.35,15.35,0,0,0-19.7,7.35V69.84a12.77,12.77,0,0,0,4,.67,12.58,12.58,0,0,0,12.2-9.6l.12-.49-.46-.19a12.52,12.52,0,0,0-15.9,5.61V55.7a9.1,9.1,0,0,0,2.77.43,9.28,9.28,0,0,0,9-7.09l.12-.49L34,48.36a9.26,9.26,0,0,0-12,4.72,9.27,9.27,0,0,0-12-4.72l-.46.19.12.49a9.26,9.26,0,0,0,9,7.09,9.11,9.11,0,0,0,2.78-.43V65.84a12.53,12.53,0,0,0-15.9-5.61L5,60.42l.12.49a12.52,12.52,0,0,0,16.24,8.92V82.06A15.34,15.34,0,0,0,1.64,74.7l-.47.2.12.49A15.33,15.33,0,0,0,21.34,86.23v3.2a9.24,9.24,0,0,0-.06,1v19.91h89.05a3.1,3.1,0,0,0,3.1-3.1V65.6A3.11,3.11,0,0,0,110.33,62.49ZM46.23,2.18H73.54l3.62,15.41H42.61Zm-3.9,16.59h35.1l1.16,4.92H41.18Zm-14.09,43a11.34,11.34,0,0,1,9.24-.62,11.38,11.38,0,0,1-14.85,7.5A11.41,11.41,0,0,1,28.24,61.75ZM12,68a11.4,11.4,0,0,1-5.62-6.88,11.38,11.38,0,0,1,14.85,7.5A11.32,11.32,0,0,1,12,68ZM9.6,84.3a14.18,14.18,0,0,1-7-8.7A14.19,14.19,0,0,1,21.23,85,14.12,14.12,0,0,1,9.6,84.3ZM89.24,63.67h21.09a1.93,1.93,0,0,1,1.92,1.93v2.78H87.31V65.6A1.94,1.94,0,0,1,89.24,63.67Zm23,5.88V103H87.31V69.55ZM86.8,109.21H60.47V80.56l6.46,4.61L71,75l15.12,5.69V107.3A3.06,3.06,0,0,0,86.8,109.21ZM52.9,73.37l5.23,5.42a2.33,2.33,0,0,0,.82.57l-5.58,4-3.52-8.82Zm.89-.77V63.78L66,63.8v8.8L60.79,78a1.28,1.28,0,0,1-.91.39A1.24,1.24,0,0,1,59,78Zm13.05.8,3.07,1.15-3.52,8.79-5.57-4a2.53,2.53,0,0,0,.82-.57ZM81.22,33.75v2.38a2.94,2.94,0,0,1-2.94,2.94h-1l1.12-8.25A2.94,2.94,0,0,1,81.22,33.75ZM19.07,29.54A5.12,5.12,0,0,1,24.15,25H95.61a5.12,5.12,0,0,1,5.08,4.52Zm22.22,9.53a2.94,2.94,0,0,1-2.94-2.94V33.75a2.94,2.94,0,0,1,2.94-2.94v-.09h0l1.14,8.35ZM46,56.56,42.49,30.72H77.27L73.76,56.58a7,7,0,0,1-6.91,6c-4.25,0-9.72,0-13.95,0A7,7,0,0,1,46,56.56ZM22.72,84.71A14.19,14.19,0,0,1,41.29,75.6c0,.05,0,.11,0,.16-.08.29-.18.57-.28.86L27.3,81.77A9.31,9.31,0,0,0,23,85.15L22.63,85Zm3.87-35A8.13,8.13,0,0,1,33,49.26a8.11,8.11,0,0,1-10.39,5.25A8.11,8.11,0,0,1,26.59,49.75ZM14.78,54a8.18,8.18,0,0,1-3.95-4.76,8.1,8.1,0,0,1,10.39,5.25A8.13,8.13,0,0,1,14.78,54Zm7.67,48.67h.07V89.53a8.17,8.17,0,0,1,5.2-6.66l21-7.93,4.1,10.23,6.45-4.61v28.65H22.45Zm87.88,6.54H89.94v0H89a1.94,1.94,0,0,1-1.68-1.91v-3.09h24.94v3.09A1.93,1.93,0,0,1,110.33,109.23Z"/><path class="cls-1" d="M93.89,89.9l.82.88a9.34,9.34,0,0,1,10.15,0l.81-.88a10.54,10.54,0,0,0-11.78,0Z"/><path class="cls-1" d="M91.86,87.72l.8.86a11.15,11.15,0,0,1,14.24,0l.81-.86a12.31,12.31,0,0,0-15.85,0Z"/><path class="cls-1" d="M90.69,86.46a12.94,12.94,0,0,1,18.18,0l.81-.86a14.11,14.11,0,0,0-19.79,0Z"/></g></g></svg>