<svg xmlns="http://www.w3.org/2000/svg" viewBox="0 0 97.61 97.61"><defs><style>.cls-1{fill:#1089ff;}</style></defs><title>Asset 5</title><g id="Layer_2" data-name="Layer 2"><g id="Layer_1-2" data-name="Layer 1"><path class="cls-1" d="M89.72,72.08a8.23,8.23,0,0,0-6.06,2.39v0a.53.53,0,0,1-.36.14h0a.5.5,0,0,1-.35-.14L74.48,66a5.78,5.78,0,0,0,5.22-5.75V51.66a1.43,1.43,0,0,0-2.86,0v8.62a2.92,2.92,0,0,1-2.92,2.92H64.29a3.51,3.51,0,0,0-3.5,3.51V77.18a.66.66,0,0,1-.65.65H56.89v-5.2a1.43,1.43,0,0,0-2.86,0v5.2H50.24v-5.2a1.43,1.43,0,0,0-2.86,0v5.2h-3.8v-5.2a1.43,1.43,0,1,0-2.85,0v5.2H37.48a.65.65,0,0,1-.65-.65V68.64h0V66.71a3.51,3.51,0,0,0-3.51-3.51H23.69a2.92,2.92,0,0,1-2.92-2.92V45.46a29.07,29.07,0,0,1,.29-4.06A1.42,1.42,0,1,0,18.24,41a30.36,30.36,0,0,0-.33,4.47V60.28A5.79,5.79,0,0,0,23.13,66l-8.45,8.46a.53.53,0,0,1-.36.14h0a.5.5,0,0,1-.35-.14l0,0A8.17,8.17,0,1,0,9.26,88.36a8.17,8.17,0,1,0,13.88-4.7h0a.51.51,0,0,1-.15-.36.47.47,0,0,1,.15-.35l3.51-3.51a1.43,1.43,0,1,0-2-2l-3.51,3.5a3.36,3.36,0,0,0,0,4.76h0a5.27,5.27,0,0,1,1.56,3.95,5.31,5.31,0,1,1-10-2.67L15,84.67a1.43,1.43,0,1,0-2-2l-2.3,2.3A5.29,5.29,0,0,1,4.22,83.8a5.37,5.37,0,0,1-.06-7,5.31,5.31,0,0,1,7.77-.28h0a3.34,3.34,0,0,0,2.38,1h0a3.35,3.35,0,0,0,2.38-1L27.15,66.06h6.17a.65.65,0,0,1,.65.65v1.34l-4.7,4.7a1.43,1.43,0,1,0,2,2L34,72.09v5.09a3.51,3.51,0,0,0,3.51,3.51H60.14a3.51,3.51,0,0,0,3.5-3.51V72.09L74.49,82.94a.5.5,0,0,1,.14.35.53.53,0,0,1-.14.36h0a8.17,8.17,0,1,0,13.89,4.7,8.18,8.18,0,1,0,1.36-16.28ZM93.39,83.8A5.28,5.28,0,0,1,87,84.94l-2.07-2.07a1.43,1.43,0,1,0-2,2L84.94,87a5.28,5.28,0,0,1-1.14,6.43,5.36,5.36,0,0,1-7,.07,5.31,5.31,0,0,1-.28-7.77v0a3.32,3.32,0,0,0,1-2.38,3.37,3.37,0,0,0-1-2.38L63.64,68.05V66.71a.66.66,0,0,1,.65-.65h6.18L80.92,76.51a3.33,3.33,0,0,0,2.37,1h0a3.35,3.35,0,0,0,2.38-1v0a5.33,5.33,0,0,1,7.78.28A5.36,5.36,0,0,1,93.39,83.8Z"/><path class="cls-1" d="M7.89,25.53A8.16,8.16,0,0,0,14,23.14h0a.47.47,0,0,1,.35-.15h0a.51.51,0,0,1,.36.15l7.19,7.19a31.6,31.6,0,0,0-1.88,4,1.42,1.42,0,0,0,.81,1.85,1.37,1.37,0,0,0,.52.1,1.43,1.43,0,0,0,1.33-.92A28.17,28.17,0,0,1,40.91,18.56l-7.09,11a3.33,3.33,0,0,0,2.8,5.14H61a3.33,3.33,0,0,0,2.81-5.14l-7.09-11A28.05,28.05,0,0,1,76.84,45.09a1.43,1.43,0,0,0,1.43,1.41h0a1.42,1.42,0,0,0,1.41-1.44,31,31,0,0,0-4-14.74l7.2-7.19a.47.47,0,0,1,.35-.15h0a.51.51,0,0,1,.36.15h0a8.19,8.19,0,0,0,6.06,2.39A8.17,8.17,0,1,0,88.36,9.26,8.18,8.18,0,1,0,74.47,14l0,0a.5.5,0,0,1,.14.35.53.53,0,0,1-.14.36L68,21.21a31,31,0,0,0-13.48-6.13l-2.86-4.44a3.34,3.34,0,0,0-5.61,0l-2.86,4.45a30.82,30.82,0,0,0-13.47,6.13l-6.54-6.54a.51.51,0,0,1-.15-.36.47.47,0,0,1,.15-.35l0,0a8.19,8.19,0,0,0,2.38-6.06A8.17,8.17,0,1,0,9.26,9.26,8.17,8.17,0,1,0,7.89,25.53ZM76.51,16.7a3.38,3.38,0,0,0,0-4.76h0a5.31,5.31,0,0,1,.28-7.77,5.37,5.37,0,0,1,7,.06,5.29,5.29,0,0,1,1.14,6.43l-1.69,1.69a1.44,1.44,0,0,0,0,2,1.41,1.41,0,0,0,1,.41,1.42,1.42,0,0,0,1-.41L87,12.67a5.3,5.3,0,0,1,6.43,1.14,5.32,5.32,0,0,1-3.76,8.87,5.27,5.27,0,0,1-3.94-1.55l0,0a3.36,3.36,0,0,0-2.38-1h0a3.34,3.34,0,0,0-2.38,1l-6.73,6.73a30.06,30.06,0,0,0-2-2.62c-.65-.74-1.33-1.45-2-2.13Zm-28.1-4.51a.46.46,0,0,1,.4-.22.47.47,0,0,1,.4.22L61.39,31.11a.48.48,0,0,1,0,.49.46.46,0,0,1-.42.25H36.62a.46.46,0,0,1-.41-.25.47.47,0,0,1,0-.49ZM4.22,13.81a5.3,5.3,0,0,1,6.43-1.14L12,14a1.4,1.4,0,0,0,1,.42A1.44,1.44,0,0,0,14,12l-1.35-1.34a5.29,5.29,0,0,1,1.15-6.43,5.36,5.36,0,0,1,7-.06,5.3,5.3,0,0,1,.29,7.77h0a3.42,3.42,0,0,0-1,2.38,3.32,3.32,0,0,0,1,2.38l6.4,6.4a30.68,30.68,0,0,0-4.07,4.74L16.7,21.11a3.32,3.32,0,0,0-2.38-1h0a3.42,3.42,0,0,0-2.38,1h0A5.24,5.24,0,0,1,8,22.68a5.3,5.3,0,0,1-3.83-1.84A5.37,5.37,0,0,1,4.22,13.81Z"/><path class="cls-1" d="M36.36,39.47a8.82,8.82,0,1,0,8.82,8.82,1.42,1.42,0,0,0-.42-1l-7.39-7.39A1.42,1.42,0,0,0,36.36,39.47Zm0,14.78a6,6,0,0,1-.57-11.89l6.5,6.5A6,6,0,0,1,36.36,54.25Z"/><path class="cls-1" d="M61.26,39.47a1.42,1.42,0,0,0-1,.42l-7.39,7.39a1.42,1.42,0,0,0-.42,1,8.82,8.82,0,1,0,8.82-8.82Zm0,14.78a6,6,0,0,1-5.94-5.39l6.5-6.5a6,6,0,0,1-.56,11.89Z"/><path class="cls-1" d="M48.81,25.88a1.43,1.43,0,0,0,1.43-1.42v-6a1.43,1.43,0,0,0-2.86,0v5.95A1.43,1.43,0,0,0,48.81,25.88Z"/><path class="cls-1" d="M48.81,29.65h0a1.43,1.43,0,1,0,0-2.86h0a1.43,1.43,0,1,0,0,2.86Z"/></g></g></svg>