<svg xmlns="http://www.w3.org/2000/svg" viewBox="0 0 140.94 70.82"><defs><style>.cls-1{fill:#1089ff;}</style></defs><title>Asset 6</title><g id="Layer_2" data-name="Layer 2"><g id="Layer_1-2" data-name="Layer 1"><path class="cls-1" d="M140.74,38.44A28.28,28.28,0,0,0,109,16.85l-6-4.87A54.22,54.22,0,0,0,33.2,13.42l-3.66,3.2a28.62,28.62,0,0,0-6.2.35l-1.26-3.75,1.05.14a1.84,1.84,0,0,0,.33,0,2.36,2.36,0,0,0,.32-4.7L12.36,7.1a2.36,2.36,0,0,0-.65,4.68l5.16.71v.06l1.87,5.59a27.24,27.24,0,0,0-6.38,3.2A28.41,28.41,0,0,0,0,42a4.75,4.75,0,0,0,4.26,5.19l.46,0H9.29v9.44H37.62V47.21h63.73v9.44h28.33V47.21h4.17a7,7,0,0,0,5.53-2.67A7.11,7.11,0,0,0,140.74,38.44ZM68.91,4.72a49.69,49.69,0,0,1,31,10.94l3.3,2.67a28.12,28.12,0,0,0-5.67,2.91H71.45l-7.87-5.9V5A50,50,0,0,1,68.91,4.72ZM73,26l19,.11a28.23,28.23,0,0,0-7.07,16.39H73ZM32.9,51.93H14V47.21H32.9Zm-.31-9.44H14.34A9.43,9.43,0,0,1,32.47,42C32.51,42.16,32.55,42.33,32.59,42.49Zm4.79,0A12.27,12.27,0,0,0,37,40.6,14.16,14.16,0,0,0,9.49,42.49H4.73v0A23.63,23.63,0,0,1,15,25.24a23.24,23.24,0,0,1,13.1-4A23.46,23.46,0,0,1,51.64,42.49Zm9.44-19a27.81,27.81,0,0,0-11.22-6l.71-.61A49.49,49.49,0,0,1,58.86,5.79V17.7l9.45,7.09v17.7h-12A28.35,28.35,0,0,0,46.82,23.53ZM125,51.93H106.08V47.21H125Zm-.32-9.44H106.4A9.43,9.43,0,0,1,124.53,42C124.58,42.18,124.6,42.34,124.64,42.49Zm11-.88a2.28,2.28,0,0,1-1.83.88h-4.38A13.63,13.63,0,0,0,129,40.6a14.16,14.16,0,0,0-27.48,1.89H89.66a23.6,23.6,0,0,1,45-7.48,23.87,23.87,0,0,1,1.53,4.5A2.44,2.44,0,0,1,135.68,41.61Z"/><path class="cls-1" d="M49.42,14.16h4.72v4.72H49.42Z"/><path class="cls-1" d="M77.75,30.69h4.72v4.72H77.75Z"/><path class="cls-1" d="M11.65,61.38a2.36,2.36,0,0,0-2.36,2.36v4.72a2.36,2.36,0,0,0,4.72,0V63.74A2.35,2.35,0,0,0,11.65,61.38Z"/><path class="cls-1" d="M23.45,61.38a2.36,2.36,0,0,0-2.36,2.36v4.72a2.36,2.36,0,0,0,4.72,0V63.74A2.35,2.35,0,0,0,23.45,61.38Z"/><path class="cls-1" d="M35.26,61.38a2.35,2.35,0,0,0-2.36,2.36v4.72a2.36,2.36,0,0,0,4.72,0V63.74A2.36,2.36,0,0,0,35.26,61.38Z"/><path class="cls-1" d="M103.71,61.38a2.36,2.36,0,0,0-2.36,2.36v4.72a2.37,2.37,0,0,0,4.73,0V63.74A2.36,2.36,0,0,0,103.71,61.38Z"/><path class="cls-1" d="M115.52,61.38a2.35,2.35,0,0,0-2.36,2.36v4.72a2.36,2.36,0,0,0,4.72,0V63.74A2.36,2.36,0,0,0,115.52,61.38Z"/><path class="cls-1" d="M127.32,61.38A2.36,2.36,0,0,0,125,63.74v4.72a2.36,2.36,0,1,0,4.72,0V63.74A2.36,2.36,0,0,0,127.32,61.38Z"/></g></g></svg>