<svg xmlns="http://www.w3.org/2000/svg" viewBox="0 0 68.97 94.04"><defs><style>.cls-1{fill:#1089ff;}</style></defs><title>Asset 4</title><g id="Layer_2" data-name="Layer 2"><g id="Layer_1-2" data-name="Layer 1"><path class="cls-1" d="M68.69,40.68a4.69,4.69,0,0,0-8.84,0H50.16V34.43h6.27A1.56,1.56,0,0,0,58,32.86h0V26.3a4.71,4.71,0,1,0-3.13,0v5h-4.7V28.16a1.57,1.57,0,0,0-1.57-1.57H45.45V18.46a4.71,4.71,0,1,0-3.13,0v8.13H36.05v-25A1.57,1.57,0,0,0,34.48,0h0C15.15,0,0,14,0,31.87,0,40.36,3.37,51.6,8.8,61.2c1,1.72,2.24,3.53,3.59,5.45,2.84,4.06,6,8.62,6.35,12.59A4.45,4.45,0,0,0,16.86,83a4.61,4.61,0,0,0,1,2.91,4.83,4.83,0,0,0-1.44,3.47,4.69,4.69,0,0,0,4.7,4.7H47.8a4.74,4.74,0,0,0,4.71-4.76v0a4.7,4.7,0,0,0-1.45-3.38,4.81,4.81,0,0,0,1-3,4.51,4.51,0,0,0-4.51-4.49H36.05V48.53h3.13v4.71a1.57,1.57,0,0,0,1.57,1.56h4.7v1.86a4.7,4.7,0,1,0,3.14,0V53.24A1.57,1.57,0,0,0,47,51.67h-4.7V48.53h6.27A1.57,1.57,0,0,0,50.16,47h0V43.83h9.69a4.69,4.69,0,1,0,8.84-3.15ZM56.43,20.32a1.57,1.57,0,1,1-1.57,1.57A1.56,1.56,0,0,1,56.43,20.32ZM15,64.85c-1.3-1.85-2.53-3.6-3.43-5.19-5.09-9-8.39-19.93-8.39-27.79,0-15.63,13-28,29.78-28.7v11l-1.29.12a1.55,1.55,0,0,0-1.34,1.23l-.48,2.28c-.4.09-.79.2-1.18.31l-1.56-1.74a1.57,1.57,0,0,0-1.78-.4,23.82,23.82,0,0,0-4.93,2.88,1.57,1.57,0,0,0-.55,1.74l.72,2.2c-.3.27-.58.56-.86.86l-2.19-.72a1.57,1.57,0,0,0-1.74.54,23.75,23.75,0,0,0-2.89,4.94,1.57,1.57,0,0,0,.4,1.78L15,31.7c-.11.39-.22.78-.31,1.17l-2.44.48A1.57,1.57,0,0,0,11,34.89v5.34a1.57,1.57,0,0,0,1.26,1.54l2.44.49c.09.39.2.77.31,1.16L13.24,45a1.59,1.59,0,0,0-.4,1.79,23.68,23.68,0,0,0,2.89,4.93,1.57,1.57,0,0,0,1.74.54l2.19-.72c.28.3.56.59.86.87l-.72,2.19a1.57,1.57,0,0,0,.55,1.74,23.82,23.82,0,0,0,4.93,2.88,1.57,1.57,0,0,0,1.78-.4l1.56-1.74c.39.12.79.22,1.18.32l.48,2.27a1.55,1.55,0,0,0,1.34,1.23c.45.06.88.09,1.3.13V78.37H21.81C21.17,73.75,17.9,69.05,15,64.85Zm5.43-27.29a14.13,14.13,0,0,0,12.53,14V57l-.25-1.24a1.58,1.58,0,0,0-1.26-1.22,17.21,17.21,0,0,1-2.73-.74,1.6,1.6,0,0,0-.53-.09A1.58,1.58,0,0,0,27,54.2L25.5,55.85a19.21,19.21,0,0,1-2.36-1.39l.68-2.07a1.55,1.55,0,0,0-.48-1.68,18.07,18.07,0,0,1-2-2,1.59,1.59,0,0,0-1.69-.47l-2.07.68a20.75,20.75,0,0,1-1.38-2.36l1.64-1.48a1.56,1.56,0,0,0,.43-1.69,17.33,17.33,0,0,1-.74-2.74,1.54,1.54,0,0,0-1.23-1.25L14.11,39V36.17l2.19-.43a1.57,1.57,0,0,0,1.23-1.26,17.21,17.21,0,0,1,.74-2.73,1.59,1.59,0,0,0-.43-1.7L16.2,28.58a19.15,19.15,0,0,1,1.38-2.36l2.07.68a1.59,1.59,0,0,0,1.69-.48,18.07,18.07,0,0,1,2-2,1.55,1.55,0,0,0,.48-1.68l-.68-2.07a19.15,19.15,0,0,1,2.36-1.38L27,20.92a1.59,1.59,0,0,0,1.7.43,17.21,17.21,0,0,1,2.73-.74,1.55,1.55,0,0,0,1.25-1.22l.26-1.23v5.39A14.11,14.11,0,0,0,20.38,37.56ZM32.91,26.72V48.41a11,11,0,0,1,0-21.69ZM49.37,89.34a1.57,1.57,0,0,1-1.57,1.57H21.16a1.61,1.61,0,0,1-1.57-1.63v0a1.57,1.57,0,0,1,1.57-1.57H47.8a1.59,1.59,0,0,1,1.57,1.63Zm-2-7.84A1.45,1.45,0,0,1,49,82.8V83a1.57,1.57,0,0,1-1.57,1.57H21.56A1.61,1.61,0,0,1,20,82.9v-.05a1.42,1.42,0,0,1,1.48-1.35H47.4ZM47,59.5a1.57,1.57,0,1,1-1.57,1.57A1.57,1.57,0,0,1,47,59.5Zm-3.13-47a1.57,1.57,0,1,1-1.57,1.57A1.57,1.57,0,0,1,43.89,12.48ZM47,45.4h-11V29.72H47Zm17.24-1.57a1.57,1.57,0,1,1,1.57-1.57A1.57,1.57,0,0,1,64.26,43.83Z"/><path class="cls-1" d="M49.6,71.65a27.77,27.77,0,0,0-1.47,3.06l2.92,1.15a22.28,22.28,0,0,1,1.29-2.7Z"/><path class="cls-1" d="M53.12,66.12c-.61.89-1.23,1.79-1.81,2.7l2.63,1.7c.57-.88,1.16-1.75,1.76-2.6Z"/><path class="cls-1" d="M56.69,60.91c-.53.84-1.12,1.71-1.74,2.6l2.58,1.79c.64-.94,1.26-1.84,1.81-2.72Z"/><path class="cls-1" d="M59.63,55.45c-.45.94-.92,1.87-1.41,2.78L61,59.71q.76-1.44,1.47-2.91Z"/><path class="cls-1" d="M62.08,49.69c-.37,1-.75,1.94-1.16,2.91l2.88,1.22c.43-1,.83-2,1.21-3Z"/><path class="cls-1" d="M69,31.56l-3.13,0v.29c0,.87,0,1.8-.12,2.76l3.12.26c.09-1,.13-2.06.13-3Z"/><path class="cls-1" d="M68.16,24.88l-3,.72a24.93,24.93,0,0,1,.52,3l3.12-.37A31.18,31.18,0,0,0,68.16,24.88Z"/><path class="cls-1" d="M65.91,18.55l-2.82,1.37a28.35,28.35,0,0,1,1.17,2.79l3-1.05A31.45,31.45,0,0,0,65.91,18.55Z"/><path class="cls-1" d="M62.33,12.88l-2.46,1.95a28.12,28.12,0,0,1,1.75,2.46l2.65-1.67A31.41,31.41,0,0,0,62.33,12.88Z"/><path class="cls-1" d="M57.63,8.09l-2,2.42a27.08,27.08,0,0,1,2.23,2.05l2.24-2.2C59.31,9.56,58.49,8.81,57.63,8.09Z"/><path class="cls-1" d="M52.08,4.36,50.59,7.11c.9.49,1.77,1,2.61,1.58L55,6.09A33.08,33.08,0,0,0,52.08,4.36Z"/><path class="cls-1" d="M45.94,1.76l-.95,3c1,.31,1.94.67,2.86,1.06l1.22-2.89C48.06,2.48,47,2.1,45.94,1.76Z"/><path class="cls-1" d="M39.44.32,39,3.43c1,.13,2,.3,3,.52L42.72.89C41.64.65,40.54.46,39.44.32Z"/></g></g></svg>