<svg xmlns="http://www.w3.org/2000/svg" viewBox="0 0 63.86 100.52"><defs><style>.cls-1{fill:#1089ff;}</style></defs><title>Asset 2</title><g id="Layer_2" data-name="Layer 2"><g id="Layer_1-2" data-name="Layer 1"><path class="cls-1" d="M63.42,48.91,55.36,21.26a10.84,10.84,0,0,0-9.06-7.75A11,11,0,0,0,35.53,0a11.2,11.2,0,0,0-3.09.44,11.05,11.05,0,0,0-7.52,13.7A11.11,11.11,0,0,0,34.28,22a10.79,10.79,0,0,0,.19,5.32L35,29.3,22.36,43.23a5.46,5.46,0,0,0-1.43,4,5.53,5.53,0,0,0,.16,1.07H7.83A3.72,3.72,0,0,0,4.11,52V90.9A4.82,4.82,0,1,0,5.88,91V69.45H22a.88.88,0,1,0,0-1.76H5.88V66.2H33.07V99.62a.88.88,0,1,0,1.76,0V52a3.72,3.72,0,0,0-2.4-3.47l6.22-6.83L42.53,55a10.81,10.81,0,0,0,3.72,5.5V93.24a7.29,7.29,0,0,0,14.57,0V59.5A10.85,10.85,0,0,0,63.42,48.91ZM7.87,95.67a3.06,3.06,0,1,1-3-3.06A3.06,3.06,0,0,1,7.87,95.67Zm18.74-82A9.3,9.3,0,0,1,32.93,2.13a9.61,9.61,0,0,1,2.6-.37,9.34,9.34,0,0,1,8.92,6.69,9.29,9.29,0,0,1-8.92,11.89A9.34,9.34,0,0,1,26.61,13.65ZM33.07,52V64.44H5.88V52a2,2,0,0,1,2-1.95h14a5.71,5.71,0,0,0,.85,1,5.5,5.5,0,0,0,7.77-.37l.56-.62h.06A2,2,0,0,1,33.07,52Zm-3.88-2.52a3.79,3.79,0,0,1-2.77,1.22,3.73,3.73,0,0,1-2.76-6.25L41.57,24.73a3.75,3.75,0,0,1,2.77-1.22,3.73,3.73,0,0,1,2.76,6.25ZM59.06,93.24a5.54,5.54,0,0,1-4.78,5.47V77.9a.88.88,0,1,0-1.76,0V98.67A5.54,5.54,0,0,1,48,93.24V56.32a5.53,5.53,0,0,1,11.05,0Zm1.76-36.63v-.29a7.29,7.29,0,1,0-14.57,0v1.79a8.91,8.91,0,0,1-2-3.6L40,40.14l8.36-9.2a5.49,5.49,0,1,0-8.13-7.39l-3.84,4.22-.27-.92a9,9,0,0,1-.09-4.76,11.63,11.63,0,0,0,2.55-.43,11,11,0,0,0,6.6-5.3,11.87,11.87,0,0,0,.54-1.14,9.08,9.08,0,0,1,7.91,6.53L61.73,49.4A9.11,9.11,0,0,1,60.82,56.61Z"/><path class="cls-1" d="M55.35,43.66a.9.9,0,0,0,.85.63,1.09,1.09,0,0,0,.25,0,.88.88,0,0,0,.59-1.1L53.62,31.66a.88.88,0,1,0-1.68.5Z"/></g></g></svg>